{"title":"Staying Alive 1983 DVDrip English Klam","uid":5853382,"size":1683681214,"categoryP":"video","categoryS":"movies","magnet":"?xt=urn:btih:425a6b762451d5df3b4730b7d7235a2845c112fe&amp;dn=Staying+Alive+1983+DVDrip+English+Klam&amp;tr=udp%3A%2F%2Ftracker.openbittorrent.com%3A80&amp;tr=udp%3A%2F%2Fopen.demonii.com%3A1337&amp;tr=udp%3A%2F%2Ftracker.coppersurfer.tk%3A6969&amp;tr=udp%3A%2F%2Fexodus.desync.com%3A6969","seeders":0,"leechers":1,"uploader":"Klambake","files":-1,"time":1285462353,"description":"With: John Travolta, Cynthia Rhodes en Finola Hughes\n\nTony Manero tries to make it as a professional dancer on Broadway in this sequel to Saturday Night Fever. Stallone makes a cameo appearance. \n &lt;a href=&quot;\nhttp://www.imdb.com/title/tt0086361&quot; rel=&quot;nofollow&quot; target=&quot;_NEW&quot;&gt;\nhttp://www.imdb.com/title/tt0086361&lt;/a&gt;\thttp://bayimg.com/mAppJaacF\n\nGeneral:\n\nComplete name                    : Klambake\\Staying Alive\\Staying Alive.avi\nFormat                           : AVI\nFormat/Info                      : Audio Video Interleave\nFile size                        : 1.57 GiB\nDuration                         : 1h 32mn\nOverall bit rate                 : 2 429 Kbps\n\nVideo:\n\nFormat                           : MPEG-4 Visual\nFormat profile                   : Simple@L3\nFormat settings, BVOP            : No\nFormat settings, QPel            : No\nFormat settings, GMC             : No warppoints\nFormat settings, Matrix          : Default (H.263)\nCodec ID                         : XVID\nCodec ID/Hint                    : XviD\nDuration                         : 1h 32mn\nBit rate                         : 1 970 Kbps\nWidth                            : 720 pixels\nHeight                           : 400 pixels\nDisplay aspect ratio             : 16:9\nFrame rate                       : 25.000 fps\nColor space                      : YUV\nChroma subsampling               : 4:2:0\nBit depth                        : 8 bits\nScan type                        : Progressive\nBits/(Pixel*Frame)               : 0.274\nStream size                      : 1.27 GiB (81%)\nWriting library                  : XviD 1.1.2 (UTC 2006-11-01)\n\nAudio:\n\nFormat                           : AC-3\nFormat/Info                      : Audio Coding 3\nMode extension                   : CM (complete main)\nCodec ID                         : 2000\nDuration                         : 1h 32mn\nBit rate mode                    : Constant\nBit rate                         : 448 Kbps\nChannel(s)                       : 6 channels\nChannel positions                : Front: L C R, Side: L R, LFE\nSampling rate                    : 48.0 KHz\nStream size                      : 296 MiB (18%)\nAlignment                        : Aligned on interleaves\nInterleave, duration             : 32 ms (0.80 video frame)\nInterleave, preload duration     : 448 ms\n","torrent":{"xt":"urn:btih:425a6b762451d5df3b4730b7d7235a2845c112fe","amp;dn":"Staying+Alive+1983+DVDrip+English+Klam","amp;tr":["udp%3A%2F%2Ftracker.openbittorrent.com%3A80","udp%3A%2F%2Fopen.demonii.com%3A1337","udp%3A%2F%2Ftracker.coppersurfer.tk%3A6969","udp%3A%2F%2Fexodus.desync.com%3A6969"],"infoHash":"425a6b762451d5df3b4730b7d7235a2845c112fe","infoHashBuffer":{"type":"Buffer","data":[66,90,107,118,36,81,213,223,59,71,48,183,215,35,90,40,69,193,18,254]},"announce":[],"urlList":[]}}